<svg xmlns="http://www.w3.org/2000/svg" width="1920" height="916" viewBox="0 0 1920 916" fill="none"><g clip-path="url(#clip0_81_9)"><mask id="mask0_81_9" style="mask-type:luminance" maskUnits="userSpaceOnUse" x="0" y="0" width="1920" height="916"><path d="M1920 0H0V916H1920V0Z" fill="white"></path></mask><g mask="url(#mask0_81_9)"><path d="M-209 1208C191.6 1287.54 337.431 1110.38 712 1114C1045.36 1117.22 1334.27 1221.3 1556 1209C1792.67 1195.87 1988.44 1107.52 1989 1110L1992 108.999C1736.77 -40.3527 220.7 -25.3007 -60 77.9993C-77.3 258.767 -207.253 1186.31 -209 1208Z" fill="url(#paint0_linear_81_9)"></path><path opacity="0.4" d="M2015 1203C1609.82 1309.02 1473.51 1085.95 1099 1095C765.7 1103.05 613.77 1216.9 392 1228C182.259 1238.5 -14.458 1175.51 -15 1178L-29 140C224.793 -13.0551 1744.83 -45.2312 2026.5 53.9998C2045.52 234.521 2013.05 1181.33 2015 1203Z" fill="#F5F5FF" fill-opacity="0.5"></path></g></g><defs><linearGradient id="paint0_linear_81_9" x1="-224" y1="-297.5" x2="128" y2="674.5" gradientUnits="userSpaceOnUse"><stop stop-color="#5E71FF"></stop><stop offset="0.884619" stop-color="#8412E4"></stop></linearGradient><clipPath id="clip0_81_9"><rect width="1920" height="916" fill="white"></rect></clipPath></defs></svg>