<svg xmlns="http://www.w3.org/2000/svg"
    xmlns:xlink="http://www.w3.org/1999/xlink" width="512" height="512" x="0" y="0" viewBox="0 0 505 505" style="fill:#5E71FF" xml:space="preserve">
    <g>
        <path d="M477.5 270.181v-90.362l-54.624-13.005a179.4 179.4 0 0 0-8.766-21.131l29.436-47.834-63.896-63.896-47.834 29.437a179.316 179.316 0 0 0-21.13-8.766L297.681 0H207.32l-13.006 54.624a179.316 179.316 0 0 0-21.13 8.766L125.35 33.953 61.453 97.849l29.436 47.834a179.4 179.4 0 0 0-8.766 21.131L27.5 179.818v90.362l54.624 13.006a179.4 179.4 0 0 0 8.766 21.131l-29.575 48.059 44.304 42.436a138.543 138.543 0 0 0-7.119 43.881V505h310v-66.307c0-14.506-2.274-28.8-6.658-42.435l41.487-44.461-29.218-47.479a179.4 179.4 0 0 0 8.766-21.131zM378.5 475h-250v-36.307c0-20.806 5.928-41.066 17.144-58.591C165.722 348.729 199.946 330 237.193 330h32.614c37.247 0 71.471 18.729 91.549 50.101a108.499 108.499 0 0 1 17.144 58.592zm-125-176.25c-38.253 0-69.375-31.122-69.375-69.375S215.247 160 253.5 160s69.375 31.122 69.375 69.375-31.122 69.375-69.375 69.375zm152.296 49.297-17.443 18.693c-.57-.94-1.135-1.883-1.729-2.81-17.205-26.883-42.557-46.474-71.744-56.455 23.122-18.211 37.994-46.451 37.994-78.1 0-54.795-44.58-99.375-99.375-99.375s-99.375 44.58-99.375 99.375c0 31.649 14.872 59.889 37.994 78.1-29.187 9.98-54.539 29.572-71.744 56.455-.462.722-.897 1.458-1.345 2.187l-19.47-18.649 25.939-42.151-19.62-47.312-48.378-11.52v-42.971l48.379-11.519 19.62-47.312-26.078-42.376 30.385-30.385L172.183 98l47.312-19.62L231.015 30h42.971l11.519 48.379L332.817 98l42.376-26.078 30.385 30.385-26.078 42.376 19.62 47.312 48.379 11.519v42.971l-48.379 11.519-19.62 47.312z" fill="" opacity="1" data-original=""></path>
    </g>
</svg>