<svg xmlns="http://www.w3.org/2000/svg" xmlns:xlink="http://www.w3.org/1999/xlink" width="512"
    height="512" x="0" y="0" viewBox="0 0 512 512" style="enable-background:new 0 0 512 512"
    xml:space="preserve"><g><path d="M27.689 181h58.8v30h-58.8zM27.689 301h58.8v30h-58.8zM0 241h86.49v30H0zM314.244 58.245c-109.042 0-197.755 88.713-197.755 197.755s88.712 197.755 197.755 197.755S512 365.042 512 256 423.287 58.245 314.244 58.245zm0 365.51c-92.5 0-167.755-75.255-167.755-167.755S221.744 88.245 314.244 88.245C406.745 88.245 482 163.5 482 256s-75.255 167.755-167.756 167.755z" fill="#5E71FF" opacity="1" data-original="#000000"></path><path d="M323.93 263.454v-96.897h-30v112.756l77.308 52.683 16.895-24.791z" fill="#5E71FF" opacity="1" data-original="#000000"></path></g></svg>