<svg xmlns="http://www.w3.org/2000/svg" xmlns:xlink="http://www.w3.org/1999/xlink" width="512"
    height="512" x="0" y="0" viewBox="0 0 512 512" style="enable-background:new 0 0 512 512"
    xml:space="preserve" class=""><g><path d="M274.973 70.811 139.87 60.479l-27.892 27.892L23.607 0 0 23.607l88.371 88.371-27.892 27.892 10.332 135.104L307.839 512 512 307.839 274.973 70.811zM103.156 260.104l-8.219-107.479 17.041-17.041 20.344 20.344c-7.407 16.885-4.222 37.333 9.581 51.136 8.982 8.983 20.782 13.474 32.58 13.474 11.798 0 23.599-4.491 32.58-13.474 17.966-17.966 17.966-47.196 0-65.162-13.802-13.804-34.252-16.989-51.137-9.581l-20.343-20.343 17.041-17.041 107.479 8.219 204.683 204.682-156.947 156.949-204.683-204.683zm62.352-94.595a12.65 12.65 0 0 1 8.975-3.711c3.251 0 6.5 1.236 8.974 3.711 4.948 4.949 4.948 13 0 17.949-4.949 4.949-13 4.949-17.949 0-4.947-4.948-4.947-13 0-17.949z" fill="#5E71FF" opacity="1" data-original="#000000"></path></g></svg>