<svg width="160" height="31" viewBox="0 0 160 31" fill="none" xmlns="http://www.w3.org/2000/svg">
<path d="M5.42 30.124C5.156 30.184 4.898 30.214 4.646 30.214C4.196 30.214 3.806 30.112 3.476 29.908C3.146 29.71 2.891 29.425 2.711 29.053C2.537 28.687 2.45 28.255 2.45 27.757C2.45 27.193 2.564 26.59 2.792 25.948L3.44 26.209C3.236 26.797 3.134 27.322 3.134 27.784C3.134 28.312 3.263 28.723 3.521 29.017C3.785 29.311 4.154 29.458 4.628 29.458C4.82 29.458 5.033 29.431 5.267 29.377C5.789 29.257 6.203 29.119 6.509 28.963C6.821 28.807 6.977 28.669 6.977 28.549C6.977 28.483 6.923 28.426 6.815 28.378C6.713 28.336 6.5 28.264 6.176 28.162L5.861 28.072C5.471 27.946 5.177 27.799 4.979 27.631C4.787 27.463 4.691 27.22 4.691 26.902C4.691 26.722 4.727 26.512 4.799 26.272C4.871 26.026 4.991 25.78 5.159 25.534C5.327 25.288 5.54 25.081 5.798 24.913C6.056 24.739 6.347 24.652 6.671 24.652C6.833 24.652 6.995 24.673 7.157 24.715L7.742 24.877L7.571 25.615L6.986 25.453C6.89 25.423 6.779 25.408 6.653 25.408C6.407 25.408 6.197 25.477 6.023 25.615C5.855 25.753 5.723 25.906 5.627 26.074C5.537 26.242 5.48 26.377 5.456 26.479C5.42 26.605 5.402 26.71 5.402 26.794C5.402 26.956 5.459 27.073 5.573 27.145C5.687 27.217 5.888 27.295 6.176 27.379C6.59 27.505 6.881 27.601 7.049 27.667C7.223 27.727 7.361 27.811 7.463 27.919C7.565 28.021 7.631 28.165 7.661 28.351C7.667 28.381 7.67 28.429 7.67 28.495C7.67 28.849 7.472 29.167 7.076 29.449C6.68 29.737 6.128 29.962 5.42 30.124ZM8.22266 29.575L8.60066 29.467C8.95466 29.371 9.22766 29.281 9.41966 29.197C9.61766 29.119 9.77966 29.005 9.90566 28.855C10.0317 28.711 10.0947 28.513 10.0947 28.261C10.0947 28.213 10.0887 28.135 10.0767 28.027L9.71666 25.444L10.3917 25.336L10.6527 27.253L10.7517 27.937C10.7697 28.075 10.7787 28.201 10.7787 28.315C10.7787 28.681 10.6947 28.984 10.5267 29.224C10.3587 29.47 10.1307 29.665 9.84266 29.809C9.56066 29.953 9.20366 30.085 8.77166 30.205L8.40266 30.313L8.22266 29.575ZM8.71766 23.59H9.56366L9.57266 24.445H8.70866L8.71766 23.59ZM9.55466 22.465H10.3377V23.203H9.55466V22.465ZM10.3107 23.59H11.1567L11.1657 24.445H10.3107V23.59ZM12.145 29.566C12.865 29.416 13.378 29.296 13.684 29.206C13.99 29.122 14.215 29.008 14.359 28.864C14.503 28.726 14.575 28.525 14.575 28.261C14.575 28.213 14.569 28.135 14.557 28.027V28H13.378C12.916 28 12.547 27.859 12.271 27.577C12.001 27.295 11.866 26.911 11.866 26.425C11.866 26.119 11.932 25.831 12.064 25.561C12.196 25.291 12.379 25.075 12.613 24.913C12.853 24.745 13.129 24.661 13.441 24.661C13.879 24.661 14.245 24.832 14.539 25.174C14.839 25.51 15.022 25.954 15.088 26.506L15.169 27.244H15.718L15.763 27.622L15.718 28H15.7H15.25C15.256 28.066 15.259 28.162 15.259 28.288C15.259 28.714 15.157 29.047 14.953 29.287C14.749 29.527 14.446 29.716 14.044 29.854C13.642 29.998 13.054 30.151 12.28 30.313L12.145 29.566ZM12.559 26.416C12.559 26.968 12.832 27.244 13.378 27.244H14.476L14.404 26.587C14.362 26.221 14.257 25.936 14.089 25.732C13.921 25.522 13.705 25.417 13.441 25.417C13.165 25.417 12.949 25.516 12.793 25.714C12.637 25.906 12.559 26.14 12.559 26.416ZM15.6308 27.244H18.4208L18.4658 27.622L18.4208 28H15.6308V27.244ZM18.329 27.244H18.536C18.86 27.244 19.079 27.172 19.193 27.028C19.307 26.884 19.358 26.716 19.346 26.524L19.175 22.078L19.859 22.042L20.03 26.488C20.042 26.74 19.997 26.983 19.895 27.217C19.793 27.445 19.628 27.634 19.4 27.784C19.172 27.928 18.884 28 18.536 28H18.329V27.244ZM21.3384 29.566C22.0584 29.416 22.5714 29.296 22.8774 29.206C23.1834 29.122 23.4084 29.008 23.5524 28.864C23.6964 28.726 23.7684 28.525 23.7684 28.261C23.7684 28.213 23.7624 28.135 23.7504 28.027V28H22.5714C22.1094 28 21.7404 27.859 21.4644 27.577C21.1944 27.295 21.0594 26.911 21.0594 26.425C21.0594 26.119 21.1254 25.831 21.2574 25.561C21.3894 25.291 21.5724 25.075 21.8064 24.913C22.0464 24.745 22.3224 24.661 22.6344 24.661C23.0724 24.661 23.4384 24.832 23.7324 25.174C24.0324 25.51 24.2154 25.954 24.2814 26.506L24.3624 27.244H24.9114L24.9564 27.622L24.9114 28H24.8934H24.4434C24.4494 28.066 24.4524 28.162 24.4524 28.288C24.4524 28.714 24.3504 29.047 24.1464 29.287C23.9424 29.527 23.6394 29.716 23.2374 29.854C22.8354 29.998 22.2474 30.151 21.4734 30.313L21.3384 29.566ZM21.7524 26.416C21.7524 26.968 22.0254 27.244 22.5714 27.244H23.6694L23.5974 26.587C23.5554 26.221 23.4504 25.936 23.2824 25.732C23.1144 25.522 22.8984 25.417 22.6344 25.417C22.3584 25.417 22.1424 25.516 21.9864 25.714C21.8304 25.906 21.7524 26.14 21.7524 26.416ZM24.8241 27.244H25.3911C25.9671 27.244 26.2371 27.019 26.2011 26.569V26.542L26.1021 25.435L26.7861 25.372L26.8851 26.479V26.497C26.9091 26.767 26.9811 26.959 27.1011 27.073C27.2211 27.187 27.4191 27.244 27.6951 27.244L27.7401 27.622L27.6951 28C27.1911 28 26.8131 27.853 26.5611 27.559C26.2851 27.853 25.8951 28 25.3911 28H24.8241V27.244ZM25.5801 23.536H26.4801V24.436H25.5801V23.536ZM32.0925 28C31.8225 28 31.5705 27.937 31.3365 27.811C31.1085 27.685 30.8865 27.493 30.6705 27.235C30.6045 27.391 30.5145 27.52 30.4005 27.622C30.1665 27.874 29.8515 28 29.4555 28H27.6015V27.244H29.4645C29.6085 27.244 29.7255 27.208 29.8155 27.136C29.8935 27.082 29.9535 27.013 29.9955 26.929C30.0435 26.845 30.0675 26.758 30.0675 26.668C30.0675 26.56 30.0345 26.449 29.9685 26.335L27.9615 23.5L28.1145 22.924L31.3725 21.727L31.6065 22.438L28.8165 23.464L30.4815 25.876L30.5625 26.011C30.8685 26.479 31.1325 26.803 31.3545 26.983C31.5765 27.157 31.8225 27.244 32.0925 27.244H32.2185L32.2635 27.622L32.2185 28H32.0925ZM32.1279 27.244H33.4419C34.0899 27.244 34.4139 27.001 34.4139 26.515C34.4139 26.383 34.3929 26.242 34.3509 26.092L33.9999 24.751L34.6569 24.562L35.0259 25.939C35.0799 26.155 35.1069 26.35 35.1069 26.524C35.1069 26.992 34.9449 27.355 34.6209 27.613C34.3029 27.871 33.9099 28 33.4419 28H32.1279V27.244ZM32.5509 22.915H33.3519V23.716H32.5509V22.915ZM34.1439 22.915H34.9449V23.716H34.1439V22.915ZM41.2882 30.124C41.0242 30.184 40.7662 30.214 40.5142 30.214C40.0642 30.214 39.6742 30.112 39.3442 29.908C39.0142 29.71 38.7592 29.425 38.5792 29.053C38.4052 28.687 38.3182 28.255 38.3182 27.757C38.3182 27.193 38.4322 26.59 38.6602 25.948L39.3082 26.209C39.1042 26.797 39.0022 27.322 39.0022 27.784C39.0022 28.312 39.1312 28.723 39.3892 29.017C39.6532 29.311 40.0222 29.458 40.4962 29.458C40.6882 29.458 40.9012 29.431 41.1352 29.377C41.6572 29.257 42.0712 29.119 42.3772 28.963C42.6892 28.807 42.8452 28.669 42.8452 28.549C42.8452 28.483 42.7912 28.426 42.6832 28.378C42.5812 28.336 42.3682 28.264 42.0442 28.162L41.7292 28.072C41.3392 27.946 41.0452 27.799 40.8472 27.631C40.6552 27.463 40.5592 27.22 40.5592 26.902C40.5592 26.722 40.5952 26.512 40.6672 26.272C40.7392 26.026 40.8592 25.78 41.0272 25.534C41.1952 25.288 41.4082 25.081 41.6662 24.913C41.9242 24.739 42.2152 24.652 42.5392 24.652C42.7012 24.652 42.8632 24.673 43.0252 24.715L43.6102 24.877L43.4392 25.615L42.8542 25.453C42.7582 25.423 42.6472 25.408 42.5212 25.408C42.2752 25.408 42.0652 25.477 41.8912 25.615C41.7232 25.753 41.5912 25.906 41.4952 26.074C41.4052 26.242 41.3482 26.377 41.3242 26.479C41.2882 26.605 41.2702 26.71 41.2702 26.794C41.2702 26.956 41.3272 27.073 41.4412 27.145C41.5552 27.217 41.7562 27.295 42.0442 27.379C42.4582 27.505 42.7492 27.601 42.9172 27.667C43.0912 27.727 43.2292 27.811 43.3312 27.919C43.4332 28.021 43.4992 28.165 43.5292 28.351C43.5352 28.381 43.5382 28.429 43.5382 28.495C43.5382 28.849 43.3402 29.167 42.9442 29.449C42.5482 29.737 41.9962 29.962 41.2882 30.124ZM46.1416 28.009C45.8596 28.009 45.5986 27.94 45.3586 27.802C45.1246 27.658 44.9386 27.466 44.8006 27.226C44.6626 26.98 44.5936 26.716 44.5936 26.434C44.5936 26.188 44.6536 25.939 44.7736 25.687C44.8996 25.435 45.0706 25.201 45.2866 24.985L45.6556 24.625L45.3496 24.328L45.8266 23.779L46.8616 24.787C47.1556 25.075 47.3656 25.345 47.4916 25.597C47.6176 25.849 47.6806 26.128 47.6806 26.434C47.6806 26.716 47.6116 26.98 47.4736 27.226C47.3356 27.466 47.1466 27.658 46.9066 27.802C46.6726 27.94 46.4176 28.009 46.1416 28.009ZM45.2596 26.434C45.2596 26.662 45.3436 26.86 45.5116 27.028C45.6856 27.19 45.8956 27.271 46.1416 27.271C46.3876 27.271 46.5946 27.19 46.7626 27.028C46.9306 26.866 47.0146 26.668 47.0146 26.434C47.0146 26.26 46.9726 26.095 46.8886 25.939C46.8106 25.783 46.6486 25.585 46.4026 25.345L46.1506 25.102L45.7906 25.453C45.6046 25.639 45.4696 25.81 45.3856 25.966C45.3016 26.122 45.2596 26.278 45.2596 26.434ZM47.501 29.575L47.879 29.467C48.233 29.371 48.506 29.281 48.698 29.197C48.896 29.119 49.058 29.005 49.184 28.855C49.31 28.711 49.373 28.513 49.373 28.261C49.373 28.213 49.367 28.135 49.355 28.027L48.995 25.444L49.67 25.336L49.931 27.253L50.03 27.937C50.048 28.075 50.057 28.201 50.057 28.315C50.057 28.681 49.973 28.984 49.805 29.224C49.637 29.47 49.409 29.665 49.121 29.809C48.839 29.953 48.482 30.085 48.05 30.205L47.681 30.313L47.501 29.575ZM48.761 23.419H49.67V24.328H48.761V23.419ZM51.3618 29.566C52.0818 29.416 52.5948 29.296 52.9008 29.206C53.2068 29.122 53.4318 29.008 53.5758 28.864C53.7198 28.726 53.7918 28.525 53.7918 28.261C53.7918 28.213 53.7858 28.135 53.7738 28.027V28H52.5948C52.1328 28 51.7638 27.859 51.4878 27.577C51.2178 27.295 51.0828 26.911 51.0828 26.425C51.0828 26.119 51.1488 25.831 51.2808 25.561C51.4128 25.291 51.5958 25.075 51.8298 24.913C52.0698 24.745 52.3458 24.661 52.6578 24.661C53.0958 24.661 53.4618 24.832 53.7558 25.174C54.0558 25.51 54.2388 25.954 54.3048 26.506L54.3858 27.244H54.9348L54.9798 27.622L54.9348 28H54.9168H54.4668C54.4728 28.066 54.4758 28.162 54.4758 28.288C54.4758 28.714 54.3738 29.047 54.1698 29.287C53.9658 29.527 53.6628 29.716 53.2608 29.854C52.8588 29.998 52.2708 30.151 51.4968 30.313L51.3618 29.566ZM51.7758 26.416C51.7758 26.968 52.0488 27.244 52.5948 27.244H53.6928L53.6208 26.587C53.5788 26.221 53.4738 25.936 53.3058 25.732C53.1378 25.522 52.9218 25.417 52.6578 25.417C52.3818 25.417 52.1658 25.516 52.0098 25.714C51.8538 25.906 51.7758 26.14 51.7758 26.416ZM54.8476 27.244H54.9736C55.5076 27.244 55.9546 27.232 56.3146 27.208C56.6746 27.178 57.0436 27.109 57.4216 27.001L59.5366 26.434L57.7096 25.39C57.5296 25.282 57.3436 25.228 57.1516 25.228C56.9656 25.228 56.7886 25.282 56.6206 25.39C56.4526 25.492 56.3176 25.636 56.2156 25.822L56.0536 26.101L55.4596 25.732L55.6306 25.426C55.7986 25.12 56.0146 24.883 56.2786 24.715C56.5486 24.547 56.8366 24.463 57.1426 24.463C57.4546 24.463 57.7546 24.55 58.0426 24.724L60.3376 26.11L60.2296 26.992L57.5926 27.739C57.1726 27.853 56.7676 27.925 56.3776 27.955C55.9876 27.985 55.5166 28 54.9646 28H54.8476V27.244ZM67.1426 28C66.4646 28 65.9546 27.994 65.6126 27.982C65.2766 27.964 65.0246 27.94 64.8566 27.91C64.6946 27.874 64.5386 27.823 64.3886 27.757C64.1126 27.637 63.9026 27.463 63.7586 27.235C63.6206 27.007 63.5516 26.74 63.5516 26.434C63.5516 26.248 63.5786 26.053 63.6326 25.849L63.9656 24.58L64.6226 24.778L64.2896 26.074C64.2536 26.218 64.2356 26.344 64.2356 26.452C64.2356 26.596 64.2686 26.719 64.3346 26.821C64.4066 26.917 64.5146 26.998 64.6586 27.064C64.7606 27.112 64.8776 27.148 65.0096 27.172C65.1476 27.196 65.3846 27.214 65.7206 27.226C66.0566 27.238 66.5606 27.244 67.2326 27.244H67.2416C67.9016 27.244 68.3996 27.238 68.7356 27.226C69.0716 27.208 69.3026 27.187 69.4286 27.163C69.5546 27.139 69.6716 27.106 69.7796 27.064C69.9296 26.998 70.0406 26.914 70.1126 26.812C70.1846 26.71 70.2206 26.581 70.2206 26.425C70.2206 26.293 70.1996 26.152 70.1576 26.002L69.8156 24.751L70.4726 24.562L70.8146 25.813C70.8746 26.029 70.9046 26.242 70.9046 26.452C70.9046 26.758 70.8326 27.025 70.6886 27.253C70.5506 27.475 70.3436 27.643 70.0676 27.757C69.9176 27.823 69.7556 27.874 69.5816 27.91C69.4136 27.94 69.1526 27.964 68.7986 27.982C68.4506 27.994 67.9316 28 67.2416 28H67.2326H67.1426ZM66.0266 24.103H66.8276V24.904H66.0266V24.103ZM67.6196 24.103H68.4206V24.904H67.6196V24.103ZM73.7485 28C73.3585 28 73.0525 27.943 72.8305 27.829C72.6085 27.715 72.4465 27.532 72.3445 27.28C72.2425 27.022 72.1825 26.668 72.1645 26.218L72.0025 22.078L72.6865 22.042L72.8485 26.218C72.8605 26.524 72.8875 26.746 72.9295 26.884C72.9775 27.022 73.0615 27.118 73.1815 27.172C73.3015 27.22 73.4905 27.244 73.7485 27.244H73.8385L73.8835 27.622L73.8385 28H73.7485ZM73.7529 27.244H76.5429L76.5879 27.622L76.5429 28H73.7529V27.244ZM76.4511 27.244H76.5501C76.7481 27.244 76.9221 27.199 77.0721 27.109C77.2281 27.019 77.3481 26.893 77.4321 26.731L78.1071 25.435C78.2211 25.213 78.3831 25.042 78.5931 24.922C78.8031 24.796 79.0281 24.733 79.2681 24.733C79.4961 24.733 79.7001 24.784 79.8801 24.886C80.1321 25.018 80.3181 25.198 80.4381 25.426C80.5641 25.648 80.6271 25.906 80.6271 26.2C80.6271 26.59 80.5221 27.01 80.3121 27.46C80.2281 27.634 80.1051 27.775 79.9431 27.883C79.7811 27.991 79.6071 28.045 79.4211 28.045C79.2771 28.045 79.1331 28.009 78.9891 27.937L77.8371 27.343C77.6811 27.553 77.4921 27.715 77.2701 27.829C77.0541 27.943 76.8141 28 76.5501 28H76.4511V27.244ZM79.3851 27.289C79.4451 27.319 79.4991 27.334 79.5471 27.334C79.6071 27.334 79.6581 27.319 79.7001 27.289C79.7421 27.253 79.7721 27.211 79.7901 27.163L79.8711 27.001C79.9731 26.749 80.0241 26.518 80.0241 26.308C80.0241 26.128 79.9881 25.972 79.9161 25.84C79.8501 25.702 79.7481 25.597 79.6101 25.525C79.5021 25.471 79.3941 25.444 79.2861 25.444C79.1481 25.444 79.0191 25.483 78.8991 25.561C78.7791 25.633 78.6861 25.735 78.6201 25.867L78.1971 26.686L79.3851 27.289ZM83.0935 28C82.6495 28 82.2955 27.913 82.0315 27.739C81.7735 27.559 81.6295 27.325 81.5995 27.037C81.5695 26.911 81.5545 26.713 81.5545 26.443H82.1845C82.1845 26.629 82.1965 26.779 82.2205 26.893C82.2445 27.019 82.3165 27.109 82.4365 27.163C82.5625 27.217 82.7455 27.244 82.9855 27.244H83.5345C84.1645 27.244 84.4795 27.055 84.4795 26.677C84.4795 26.635 84.4675 26.56 84.4435 26.452V26.434L83.7685 23.788L84.4345 23.608L85.1095 26.263C85.1695 26.497 85.2235 26.68 85.2715 26.812C85.3255 26.938 85.3975 27.043 85.4875 27.127C85.5775 27.205 85.6975 27.244 85.8475 27.244H86.2885L86.3335 27.622L86.2885 28H85.8475C85.4455 28 85.1215 27.832 84.8755 27.496C84.5875 27.832 84.1105 28 83.4445 28H83.0935ZM86.1982 27.244H86.3242C86.8582 27.244 87.3052 27.232 87.6652 27.208C88.0252 27.178 88.3942 27.109 88.7722 27.001L90.8872 26.434L89.0602 25.39C88.8802 25.282 88.6942 25.228 88.5022 25.228C88.3162 25.228 88.1392 25.282 87.9712 25.39C87.8032 25.492 87.6682 25.636 87.5662 25.822L87.4042 26.101L86.8102 25.732L86.9812 25.426C87.1492 25.12 87.3652 24.883 87.6292 24.715C87.8992 24.547 88.1872 24.463 88.4932 24.463C88.8052 24.463 89.1052 24.55 89.3932 24.724L91.6882 26.11L91.5802 26.992L88.9432 27.739C88.5232 27.853 88.1182 27.925 87.7282 27.955C87.3382 27.985 86.8672 28 86.3152 28H86.1982V27.244ZM87.9622 22.69H88.8712V23.59H87.9622V22.69ZM96.5041 27.334C96.4681 27.34 96.4171 27.343 96.3511 27.343C96.0571 27.343 95.7781 27.244 95.5141 27.046C95.2501 26.842 95.0701 26.596 94.9741 26.308C94.9261 26.146 94.9021 25.993 94.9021 25.849C94.9021 25.531 94.9951 25.237 95.1811 24.967C95.3671 24.697 95.6101 24.511 95.9101 24.409L97.2331 23.968V23.563H97.9171V26.209C97.9171 26.497 98.0191 26.743 98.2231 26.947C98.4331 27.145 98.6881 27.244 98.9881 27.244H99.1591L99.2041 27.622L99.1591 28H98.9881C98.6821 28 98.3971 27.925 98.1331 27.775C97.8751 27.625 97.6651 27.424 97.5031 27.172L96.5041 27.334ZM95.6221 26.038C95.6701 26.206 95.7751 26.347 95.9371 26.461C96.0991 26.569 96.2701 26.608 96.4501 26.578L97.2511 26.443C97.2391 26.335 97.2331 26.257 97.2331 26.209V24.724L96.1261 25.102C95.9581 25.162 95.8261 25.258 95.7301 25.39C95.6341 25.516 95.5861 25.657 95.5861 25.813C95.5861 25.867 95.5981 25.942 95.6221 26.038ZM99.0654 27.244H101.855L101.9 27.622L101.855 28H99.0654V27.244ZM101.764 27.244H102.475C103.129 27.244 103.456 26.998 103.456 26.506C103.456 26.374 103.435 26.236 103.393 26.092L103.033 24.751L103.699 24.562L104.059 25.903C104.113 26.125 104.14 26.329 104.14 26.515C104.14 26.989 103.981 27.355 103.663 27.613C103.345 27.871 102.949 28 102.475 28H101.764V27.244ZM102.664 23.572C102.538 23.446 102.457 23.296 102.421 23.122C102.403 23.05 102.394 22.978 102.394 22.906C102.394 22.666 102.478 22.462 102.646 22.294C102.82 22.126 103.033 22.042 103.285 22.042C103.447 22.042 103.672 22.072 103.96 22.132L103.888 22.519C103.63 22.471 103.426 22.447 103.276 22.447C103.126 22.447 103 22.495 102.898 22.591C102.802 22.681 102.754 22.792 102.754 22.924C102.754 23.068 102.802 23.188 102.898 23.284C103 23.374 103.12 23.419 103.258 23.419C103.288 23.419 103.327 23.413 103.375 23.401L104.284 23.185L104.365 23.581L101.998 24.148L101.917 23.752L102.664 23.572ZM105.315 22.078L105.999 22.042L106.224 27.991L105.549 28.027L105.315 22.078ZM106.405 29.575L106.783 29.467C107.137 29.371 107.41 29.281 107.602 29.197C107.8 29.119 107.962 29.005 108.088 28.855C108.214 28.711 108.277 28.513 108.277 28.261C108.277 28.213 108.271 28.135 108.259 28.027L107.899 25.444L108.574 25.336L108.835 27.253L108.934 27.937C108.952 28.075 108.961 28.201 108.961 28.315C108.961 28.681 108.877 28.984 108.709 29.224C108.541 29.47 108.313 29.665 108.025 29.809C107.743 29.953 107.386 30.085 106.954 30.205L106.585 30.313L106.405 29.575ZM110.026 22.078L110.71 22.042L110.935 27.991L110.26 28.027L110.026 22.078ZM117.296 30.124C117.032 30.184 116.774 30.214 116.522 30.214C116.072 30.214 115.682 30.112 115.352 29.908C115.022 29.71 114.767 29.425 114.587 29.053C114.413 28.687 114.326 28.255 114.326 27.757C114.326 27.193 114.44 26.59 114.668 25.948L115.316 26.209C115.112 26.797 115.01 27.322 115.01 27.784C115.01 28.312 115.139 28.723 115.397 29.017C115.661 29.311 116.03 29.458 116.504 29.458C116.696 29.458 116.909 29.431 117.143 29.377C117.665 29.257 118.079 29.119 118.385 28.963C118.697 28.807 118.853 28.669 118.853 28.549C118.853 28.483 118.799 28.426 118.691 28.378C118.589 28.336 118.376 28.264 118.052 28.162L117.737 28.072C117.347 27.946 117.053 27.799 116.855 27.631C116.663 27.463 116.567 27.22 116.567 26.902C116.567 26.722 116.603 26.512 116.675 26.272C116.747 26.026 116.867 25.78 117.035 25.534C117.203 25.288 117.416 25.081 117.674 24.913C117.932 24.739 118.223 24.652 118.547 24.652C118.709 24.652 118.871 24.673 119.033 24.715L119.618 24.877L119.447 25.615L118.862 25.453C118.766 25.423 118.655 25.408 118.529 25.408C118.283 25.408 118.073 25.477 117.899 25.615C117.731 25.753 117.599 25.906 117.503 26.074C117.413 26.242 117.356 26.377 117.332 26.479C117.296 26.605 117.278 26.71 117.278 26.794C117.278 26.956 117.335 27.073 117.449 27.145C117.563 27.217 117.764 27.295 118.052 27.379C118.466 27.505 118.757 27.601 118.925 27.667C119.099 27.727 119.237 27.811 119.339 27.919C119.441 28.021 119.507 28.165 119.537 28.351C119.543 28.381 119.546 28.429 119.546 28.495C119.546 28.849 119.348 29.167 118.952 29.449C118.556 29.737 118.004 29.962 117.296 30.124ZM120.88 22.078L121.564 22.042L121.789 27.991L121.114 28.027L120.88 22.078ZM124.95 28C124.776 28 124.626 27.982 124.5 27.946C124.518 28.084 124.527 28.21 124.527 28.324C124.527 28.69 124.443 28.993 124.275 29.233C124.107 29.473 123.879 29.665 123.591 29.809C123.309 29.953 122.952 30.085 122.52 30.205L122.151 30.313L121.971 29.575L122.349 29.467C122.703 29.371 122.976 29.281 123.168 29.197C123.366 29.119 123.528 29.005 123.654 28.855C123.78 28.711 123.843 28.513 123.843 28.261C123.843 28.213 123.837 28.135 123.825 28.027L123.465 25.444L124.14 25.336L124.185 25.66C124.197 25.756 124.209 25.825 124.221 25.867L124.311 26.443C124.347 26.665 124.386 26.833 124.428 26.947C124.476 27.055 124.539 27.133 124.617 27.181C124.695 27.223 124.806 27.244 124.95 27.244H125.013L125.058 27.622L125.013 28H124.95ZM124.94 27.244H125.651C126.305 27.244 126.632 26.998 126.632 26.506C126.632 26.374 126.611 26.236 126.569 26.092L126.209 24.751L126.875 24.562L127.235 25.903C127.289 26.125 127.316 26.329 127.316 26.515C127.316 26.989 127.157 27.355 126.839 27.613C126.521 27.871 126.125 28 125.651 28H124.94V27.244ZM125.57 28.819H126.47V29.728H125.57V28.819Z" fill="#716F87"/>
<path d="M5.2785 16.186C4.8375 16.285 4.437 16.3345 4.077 16.3345C3.375 16.3345 2.7675 16.177 2.2545 15.862C1.7505 15.547 1.359 15.1015 1.08 14.5255C0.81 13.9495 0.675 13.279 0.675 12.514C0.675 11.65 0.846 10.732 1.188 9.76L2.376 10.2325C2.079 11.1055 1.9305 11.8705 1.9305 12.5275C1.9305 13.2925 2.115 13.882 2.484 14.296C2.862 14.719 3.393 14.9305 4.077 14.9305C4.401 14.9305 4.707 14.8945 4.995 14.8225C5.742 14.6425 6.3405 14.449 6.7905 14.242C7.2495 14.044 7.4745 13.873 7.4655 13.729C7.4565 13.657 7.3755 13.5895 7.2225 13.5265C7.0785 13.4635 6.8085 13.3735 6.4125 13.2565L5.832 13.081C5.229 12.874 4.779 12.64 4.482 12.379C4.185 12.109 4.0365 11.731 4.0365 11.245C4.0365 10.957 4.095 10.624 4.212 10.246C4.338 9.841 4.5315 9.445 4.7925 9.058C5.0625 8.671 5.3955 8.3515 5.7915 8.0995C6.1875 7.8475 6.6285 7.7215 7.1145 7.7215C7.3845 7.7215 7.641 7.7575 7.884 7.8295L8.7615 8.0725L8.4375 9.4225L7.56 9.1795C7.416 9.1345 7.254 9.112 7.074 9.112C6.732 9.112 6.4395 9.211 6.1965 9.409C5.9625 9.607 5.778 9.823 5.643 10.057C5.517 10.282 5.436 10.471 5.4 10.624C5.355 10.804 5.3325 10.939 5.3325 11.029C5.3325 11.245 5.409 11.4025 5.562 11.5015C5.715 11.5915 5.994 11.6995 6.399 11.8255C7.047 12.0145 7.497 12.1585 7.749 12.2575C8.01 12.3475 8.2215 12.478 8.3835 12.649C8.5455 12.82 8.6535 13.0585 8.7075 13.3645C8.7165 13.4185 8.721 13.504 8.721 13.621C8.721 14.197 8.4195 14.7055 7.8165 15.1465C7.2135 15.5965 6.3675 15.943 5.2785 16.186ZM9.53174 15.106L10.1932 14.9305C10.6882 14.7955 11.0707 14.6695 11.3407 14.5525C11.6197 14.4355 11.8402 14.2735 12.0022 14.0665C12.1732 13.8685 12.2587 13.603 12.2587 13.27C12.2587 13.207 12.2497 13.0945 12.2317 12.9325L11.6917 9.0445L12.9337 8.8555L13.3252 11.7175L13.3657 12.001L13.4602 12.7705C13.4872 12.9865 13.5007 13.1845 13.5007 13.3645C13.5007 14.1745 13.2487 14.7955 12.7447 15.2275C12.2497 15.6595 11.5072 16.0105 10.5172 16.2805L9.85574 16.456L9.53174 15.106ZM10.1662 6.1285H11.5837V7.546H10.1527L10.1662 6.1285ZM11.5027 4.3195H12.7852V5.5345H11.5027V4.3195ZM12.6907 6.1285H14.0947L14.1082 7.546H12.6772L12.6907 6.1285ZM15.6407 15.106C16.7927 14.863 17.5892 14.6695 18.0302 14.5255C18.4802 14.3905 18.7907 14.2105 18.9617 13.9855C19.1417 13.7695 19.2137 13.441 19.1777 13H17.5172C16.7882 13 16.2077 12.775 15.7757 12.325C15.3437 11.866 15.1277 11.254 15.1277 10.489C15.1277 10.012 15.2312 9.562 15.4382 9.139C15.6452 8.707 15.9377 8.365 16.3157 8.113C16.6937 7.852 17.1212 7.7215 17.5982 7.7215C18.2912 7.7215 18.8717 7.9915 19.3397 8.5315C19.8077 9.0625 20.0912 9.7555 20.1902 10.6105L20.2982 11.596H21.1082L21.1892 12.298L21.1082 13H21.0677H20.4467L20.4602 13.297C20.4602 13.954 20.3027 14.4715 19.9877 14.8495C19.6817 15.2275 19.2182 15.529 18.5972 15.754C17.9762 15.988 17.0762 16.2265 15.8972 16.4695L15.6407 15.106ZM16.3832 10.489C16.3832 10.858 16.4732 11.137 16.6532 11.326C16.8332 11.506 17.1212 11.596 17.5172 11.596H19.0292L18.9347 10.7725C18.8807 10.2415 18.7367 9.8365 18.5027 9.5575C18.2687 9.2695 17.9672 9.1255 17.5982 9.1255C17.2202 9.1255 16.9232 9.2605 16.7072 9.5305C16.4912 9.8005 16.3832 10.12 16.3832 10.489ZM20.9735 11.596H25.1585L25.2395 12.298L25.1585 13H20.9735V11.596ZM25.0209 11.596H25.3314C26.0874 11.596 26.4564 11.281 26.4384 10.651L26.1819 3.982L27.4239 3.9145L27.6804 10.597C27.6984 11.011 27.6219 11.4025 27.4509 11.7715C27.2889 12.1405 27.0279 12.4375 26.6679 12.6625C26.3079 12.8875 25.8624 13 25.3314 13H25.0209V11.596ZM29.6944 15.106C30.8464 14.863 31.6429 14.6695 32.0839 14.5255C32.5339 14.3905 32.8444 14.2105 33.0154 13.9855C33.1954 13.7695 33.2674 13.441 33.2314 13H31.5709C30.8419 13 30.2614 12.775 29.8294 12.325C29.3974 11.866 29.1814 11.254 29.1814 10.489C29.1814 10.012 29.2849 9.562 29.4919 9.139C29.6989 8.707 29.9914 8.365 30.3694 8.113C30.7474 7.852 31.1749 7.7215 31.6519 7.7215C32.3449 7.7215 32.9254 7.9915 33.3934 8.5315C33.8614 9.0625 34.1449 9.7555 34.2439 10.6105L34.3519 11.596H35.1619L35.2429 12.298L35.1619 13H35.1214H34.5004L34.5139 13.297C34.5139 13.954 34.3564 14.4715 34.0414 14.8495C33.7354 15.2275 33.2719 15.529 32.6509 15.754C32.0299 15.988 31.1299 16.2265 29.9509 16.4695L29.6944 15.106ZM30.4369 10.489C30.4369 10.858 30.5269 11.137 30.7069 11.326C30.8869 11.506 31.1749 11.596 31.5709 11.596H33.0829L32.9884 10.7725C32.9344 10.2415 32.7904 9.8365 32.5564 9.5575C32.3224 9.2695 32.0209 9.1255 31.6519 9.1255C31.2739 9.1255 30.9769 9.2605 30.7609 9.5305C30.5449 9.8005 30.4369 10.12 30.4369 10.489ZM35.0272 11.596H35.8777C36.2917 11.596 36.5842 11.5285 36.7552 11.3935C36.9262 11.2495 37.0027 11.029 36.9847 10.732V10.705L36.8362 9.0445L38.0782 8.923L38.2267 10.5835V10.597C38.2627 10.975 38.3572 11.236 38.5102 11.38C38.6632 11.524 38.9377 11.596 39.3337 11.596L39.4147 12.298L39.3337 13C38.5957 13 38.0287 12.7975 37.6327 12.3925C37.2097 12.7975 36.6247 13 35.8777 13H35.0272V11.596ZM36.1072 6.0475H37.6057V7.546H36.1072V6.0475ZM45.9702 13C45.5742 13 45.2052 12.9145 44.8632 12.7435C44.5212 12.5635 44.1927 12.3025 43.8777 11.9605C43.8057 12.1045 43.7112 12.235 43.5942 12.352C43.2342 12.784 42.7122 13 42.0282 13H39.1932V11.596H42.0417C42.2487 11.596 42.4107 11.551 42.5277 11.461C42.7257 11.317 42.8247 11.1235 42.8247 10.8805C42.8247 10.7275 42.7797 10.579 42.6897 10.435L39.6927 6.196L39.9762 5.143L44.8497 3.3475L45.2952 4.657L41.2587 6.1285L43.6347 9.598L43.7292 9.7465C44.1792 10.4665 44.5617 10.957 44.8767 11.218C45.2007 11.47 45.5652 11.596 45.9702 11.596H46.1592L46.2402 12.298L46.1592 13H45.9702ZM46.0223 11.596H48.0203C48.4433 11.596 48.7718 11.524 49.0058 11.38C49.2488 11.227 49.3703 10.975 49.3703 10.624C49.3703 10.453 49.3388 10.2595 49.2758 10.0435L48.7493 8.032L49.9643 7.681L50.5043 9.76C50.5943 10.066 50.6393 10.372 50.6393 10.678C50.6393 11.164 50.5223 11.5825 50.2883 11.9335C50.0543 12.2845 49.7393 12.55 49.3433 12.73C48.9473 12.91 48.5063 13 48.0203 13H46.0223V11.596ZM46.5893 5.1025H47.9123V6.439H46.5893V5.1025ZM49.1003 5.1025H50.4368V6.439H49.1003V5.1025ZM57.7246 13.027C57.2836 13.027 56.8786 12.9145 56.5096 12.6895C56.1406 12.4645 55.8436 12.163 55.6186 11.785C55.4026 11.398 55.2946 10.9795 55.2946 10.5295C55.2946 10.1425 55.3891 9.751 55.5781 9.355C55.7671 8.959 56.0326 8.5945 56.3746 8.2615L56.8201 7.816L56.3881 7.411L57.2656 6.3985L58.8856 7.9645C59.3356 8.3965 59.6596 8.8105 59.8576 9.2065C60.0556 9.6025 60.1546 10.0435 60.1546 10.5295C60.1546 10.9795 60.0421 11.398 59.8171 11.785C59.6011 12.163 59.3086 12.4645 58.9396 12.6895C58.5706 12.9145 58.1656 13.027 57.7246 13.027ZM56.5096 10.5295C56.5096 10.8445 56.6266 11.1145 56.8606 11.3395C57.0946 11.5555 57.3826 11.6635 57.7246 11.6635C58.0666 11.6635 58.3501 11.5555 58.5751 11.3395C58.8091 11.1145 58.9261 10.8445 58.9261 10.5295C58.9261 10.2865 58.8676 10.057 58.7506 9.841C58.6336 9.616 58.3996 9.3325 58.0486 8.9905L57.7381 8.6935L57.2926 9.1255C57.0136 9.4045 56.8111 9.6565 56.6851 9.8815C56.5681 10.0975 56.5096 10.3135 56.5096 10.5295ZM63.8833 13C63.1993 13 62.6503 12.8515 62.2363 12.5545C61.8313 12.2575 61.6108 11.875 61.5748 11.407C61.5388 11.236 61.5208 10.9435 61.5208 10.5295H62.6818C62.6818 10.7905 62.6953 11.002 62.7223 11.164C62.7583 11.326 62.8483 11.4385 62.9923 11.5015C63.1363 11.5645 63.3613 11.596 63.6673 11.596H64.7878C65.5888 11.596 65.9893 11.353 65.9893 10.867C65.9893 10.813 65.9713 10.705 65.9353 10.543C65.7823 10.084 65.5078 9.517 65.1118 8.842C64.7248 8.167 64.2973 7.4965 63.8293 6.8305L64.8418 6.007C65.3728 6.745 65.8543 7.4965 66.2863 8.2615C66.7273 9.0265 67.0153 9.6835 67.1503 10.2325C67.2043 10.4575 67.2313 10.6825 67.2313 10.9075C67.2313 11.5285 67.0108 12.0325 66.5698 12.4195C66.1288 12.8065 65.4808 13 64.6258 13H63.8833ZM71.5537 13C70.9507 13 70.4737 12.91 70.1227 12.73C69.7717 12.55 69.5152 12.262 69.3532 11.866C69.1912 11.461 69.0967 10.903 69.0697 10.192L68.8267 3.982L70.0822 3.928L70.3252 10.192C70.3432 10.624 70.3792 10.9345 70.4332 11.1235C70.4962 11.3035 70.6042 11.4295 70.7572 11.5015C70.9192 11.5645 71.1847 11.596 71.5537 11.596H71.6887L71.7697 12.298L71.6887 13H71.5537ZM71.559 11.596H75.744L75.825 12.298L75.744 13H71.559V11.596ZM75.6063 11.596H75.7548C76.0248 11.596 76.2678 11.5375 76.4838 11.4205C76.6998 11.2945 76.8618 11.1235 76.9698 10.9075L77.9958 8.95C78.1758 8.599 78.4323 8.329 78.7653 8.14C79.0983 7.942 79.4538 7.843 79.8318 7.843C80.1828 7.843 80.5113 7.924 80.8173 8.086C81.2133 8.293 81.5058 8.572 81.6948 8.923C81.8928 9.274 81.9918 9.679 81.9918 10.138C81.9918 10.759 81.8298 11.416 81.5058 12.109C81.3708 12.406 81.1728 12.64 80.9118 12.811C80.6598 12.982 80.3808 13.0675 80.0748 13.0675C79.8228 13.0675 79.5843 13.009 79.3593 12.892L77.7123 12.0415C77.1993 12.6805 76.5468 13 75.7548 13H75.6063V11.596ZM80.1018 11.704C80.1648 11.74 80.2278 11.758 80.2908 11.758C80.4168 11.758 80.5023 11.695 80.5473 11.569L80.6823 11.272C80.8263 10.93 80.8983 10.6195 80.8983 10.3405C80.8983 10.0975 80.8488 9.8815 80.7498 9.6925C80.6508 9.4945 80.5068 9.3505 80.3178 9.2605C80.1828 9.1885 80.0298 9.1525 79.8588 9.1525C79.6698 9.1525 79.4898 9.2065 79.3188 9.3145C79.1568 9.4135 79.0263 9.562 78.9273 9.76L78.3873 10.84L80.1018 11.704ZM83.9854 5.359L85.2409 5.2915L85.5379 12.9865L84.2824 13.0405L83.9854 5.359ZM82.6084 4.6975C82.6084 4.3465 82.7119 4.0675 82.9189 3.8605C83.1259 3.6445 83.4004 3.5365 83.7424 3.5365C83.8144 3.5365 83.9134 3.5455 84.0394 3.5635L85.4029 3.82C85.4479 3.829 85.5064 3.8335 85.5784 3.8335C85.7314 3.8335 85.8484 3.793 85.9294 3.712C86.0104 3.631 86.0509 3.523 86.0509 3.388V3.3205L86.7124 3.2665V3.523C86.7124 3.874 86.6044 4.1575 86.3884 4.3735C86.1814 4.5895 85.9069 4.6975 85.5649 4.6975C85.5019 4.6975 85.4074 4.6885 85.2814 4.6705L83.9179 4.414C83.8729 4.405 83.8099 4.4005 83.7289 4.4005C83.5759 4.4005 83.4589 4.441 83.3779 4.522C83.3059 4.594 83.2699 4.6975 83.2699 4.8325V4.9135L82.6084 4.954V4.6975ZM96.2282 13C95.2112 13 94.4417 12.991 93.9197 12.973C93.4067 12.946 93.0152 12.91 92.7452 12.865C92.4842 12.811 92.2322 12.7345 91.9892 12.6355C91.5662 12.4465 91.2422 12.172 91.0172 11.812C90.7922 11.452 90.6797 11.0335 90.6797 10.5565C90.6797 10.2685 90.7202 9.9625 90.8012 9.6385L91.3007 7.708L92.5022 8.059L91.9892 10.0435C91.9442 10.1965 91.9217 10.363 91.9217 10.543C91.9217 10.741 91.9667 10.903 92.0567 11.029C92.1467 11.155 92.2907 11.263 92.4887 11.353C92.7047 11.443 93.0377 11.506 93.4877 11.542C93.9467 11.578 94.8872 11.596 96.3092 11.596H99.4817C99.8957 11.596 100.188 11.5285 100.359 11.3935C100.53 11.2495 100.607 11.029 100.589 10.732V10.705L100.44 9.0445L101.696 8.923L101.844 10.5835V10.624C101.88 10.993 101.975 11.2495 102.128 11.3935C102.29 11.5285 102.56 11.596 102.938 11.596H103.086L103.167 12.298L103.086 13H102.938C102.191 13 101.624 12.793 101.237 12.379C101.03 12.577 100.778 12.73 100.481 12.838C100.184 12.946 99.8507 13 99.4817 13H96.3092H96.2282ZM94.4327 6.898H95.7557V8.2345H94.4327V6.898ZM96.9437 6.898H98.2667V8.2345H96.9437V6.898ZM102.936 11.596H107.121L107.202 12.298L107.121 13H102.936V11.596ZM106.983 11.596H108.981C109.404 11.596 109.733 11.524 109.967 11.38C110.21 11.227 110.331 10.975 110.331 10.624C110.331 10.453 110.3 10.2595 110.237 10.0435L109.71 8.032L110.925 7.681L111.465 9.76C111.555 10.066 111.6 10.372 111.6 10.678C111.6 11.164 111.483 11.5825 111.249 11.9335C111.015 12.2845 110.7 12.55 110.304 12.73C109.908 12.91 109.467 13 108.981 13H106.983V11.596ZM106.376 14.296H107.699V15.6325H106.376V14.296ZM108.887 14.296H110.21V15.6325H108.887V14.296ZM115.916 13C115.313 13 114.836 12.91 114.485 12.73C114.134 12.55 113.878 12.262 113.716 11.866C113.554 11.461 113.459 10.903 113.432 10.192L113.189 3.982L114.445 3.928L114.688 10.192C114.706 10.624 114.742 10.9345 114.796 11.1235C114.859 11.3035 114.967 11.4295 115.12 11.5015C115.282 11.5645 115.547 11.596 115.916 11.596H116.051L116.132 12.298L116.051 13H115.916ZM123.185 13C122.51 13 121.965 12.766 121.551 12.298C121.146 12.766 120.584 13 119.864 13C119.531 13 119.225 12.937 118.946 12.811C118.676 12.685 118.442 12.5095 118.244 12.2845C117.83 12.7615 117.267 13 116.556 13H115.922V11.596H116.556C116.979 11.596 117.267 11.515 117.42 11.353C117.573 11.191 117.654 10.9795 117.663 10.7185V10.6375V8.9635H118.838V10.6375V10.7185C118.847 10.9975 118.937 11.2135 119.108 11.3665C119.279 11.5195 119.531 11.596 119.864 11.596C120.305 11.596 120.597 11.506 120.741 11.326C120.894 11.146 120.971 10.9165 120.971 10.6375V8.9635H122.145V10.6375V10.7185C122.145 10.9975 122.231 11.2135 122.402 11.3665C122.582 11.5195 122.843 11.596 123.185 11.596C123.923 11.596 124.292 11.2855 124.292 10.6645C124.292 10.4755 124.26 10.2685 124.197 10.0435L123.657 8.032L124.872 7.681L125.412 9.6925C125.502 10.0255 125.547 10.3495 125.547 10.6645C125.547 11.1415 125.439 11.56 125.223 11.92C125.016 12.271 124.733 12.541 124.373 12.73C124.022 12.91 123.626 13 123.185 13Z" fill="#5E71FF"/>
<path d="M140.923 30.5781H140.793C139.696 30.5204 138.665 30.0774 137.914 29.3409C137.164 28.6045 136.752 27.6313 136.763 26.6233V21.7477C136.755 21.3209 136.627 20.9033 136.389 20.536C136.152 20.1687 135.815 19.8645 135.41 19.6534C133.788 18.7916 132.437 17.5588 131.489 16.0752C130.541 14.5916 130.028 12.9078 130.002 11.1883C129.958 8.82586 130.827 6.52541 132.453 4.69324C134.08 2.86107 136.36 1.61503 138.891 1.17518C141.422 0.735329 144.041 1.12996 146.285 2.28937C148.53 3.44879 150.255 5.29841 151.157 7.5116C151.183 7.5706 151.195 7.6337 151.194 7.69721C151.193 7.76072 151.178 7.82334 151.15 7.88142C151.122 7.9395 151.081 7.99185 151.031 8.03542C150.98 8.07898 150.921 8.11287 150.856 8.13511C150.791 8.15734 150.722 8.16747 150.653 8.16491C150.584 8.16234 150.516 8.14712 150.453 8.12015C150.391 8.09318 150.334 8.055 150.288 8.00784C150.242 7.96068 150.206 7.90551 150.183 7.84554C149.449 6.03392 148.101 4.48573 146.338 3.42799C144.574 2.37025 142.488 1.85861 140.384 1.96811C137.838 2.11259 135.449 3.14796 133.711 4.86064C131.973 6.57331 131.017 8.83265 131.042 11.1726C131.066 12.7283 131.529 14.2517 132.386 15.5941C133.244 16.9365 134.466 18.052 135.934 18.8319C136.495 19.1269 136.962 19.551 137.29 20.0623C137.618 20.5737 137.794 21.1545 137.803 21.7477V26.6233C137.789 27.3841 138.096 28.1204 138.659 28.6793C139.222 29.2381 139.998 29.5765 140.826 29.624C141.243 29.6338 141.659 29.5676 142.049 29.4292C142.438 29.2908 142.794 29.083 143.096 28.8178C143.397 28.5515 143.636 28.232 143.799 27.8786C143.962 27.5253 144.045 27.1453 144.044 26.7616V21.7477C144.041 21.1657 144.206 20.5933 144.521 20.0883C144.837 19.5834 145.292 19.1638 145.841 18.8719C147.836 17.8192 149.37 16.1644 150.184 14.1895C150.207 14.13 150.243 14.0754 150.29 14.0287C150.336 13.9821 150.392 13.9445 150.455 13.918C150.518 13.8915 150.585 13.8767 150.654 13.8744C150.723 13.8721 150.792 13.8825 150.857 13.9048C150.921 13.9272 150.98 13.961 151.03 14.0045C151.08 14.0479 151.121 14.1001 151.148 14.158C151.176 14.2158 151.191 14.2781 151.193 14.3414C151.194 14.4046 151.182 14.4675 151.157 14.5263C150.259 16.7093 148.562 18.5384 146.357 19.7011C145.967 19.9095 145.645 20.2085 145.421 20.5678C145.198 20.9271 145.081 21.334 145.084 21.7477V26.7616C145.084 27.7738 144.646 28.7446 143.865 29.4603C143.085 30.176 142.027 30.5781 140.923 30.5781Z" fill="url(#paint0_linear_58_19)"/>
<path d="M144.564 23.8992H137.283C137.145 23.8992 137.013 23.8489 136.915 23.7595C136.817 23.67 136.763 23.5487 136.763 23.4221C136.763 23.2956 136.817 23.1743 136.915 23.0848C137.013 22.9953 137.145 22.9451 137.283 22.9451H144.564C144.702 22.9451 144.834 22.9953 144.932 23.0848C145.029 23.1743 145.084 23.2956 145.084 23.4221C145.084 23.5487 145.029 23.67 144.932 23.7595C144.834 23.8489 144.702 23.8992 144.564 23.8992Z" fill="url(#paint1_linear_58_19)"/>
<path d="M139.883 25.8075H137.283C137.145 25.8075 137.013 25.7572 136.915 25.6677C136.817 25.5783 136.763 25.4569 136.763 25.3304C136.763 25.2039 136.817 25.0825 136.915 24.9931C137.013 24.9036 137.145 24.8533 137.283 24.8533H139.883C140.021 24.8533 140.153 24.9036 140.251 24.9931C140.349 25.0825 140.403 25.2039 140.403 25.3304C140.403 25.4569 140.349 25.5783 140.251 25.6677C140.153 25.7572 140.021 25.8075 139.883 25.8075Z" fill="url(#paint2_linear_58_19)"/>
<path d="M139.363 17.5304C139.323 17.5305 139.283 17.5263 139.243 17.518C137.93 17.2299 136.73 16.6138 135.775 15.7381C134.82 14.8623 134.149 13.7611 133.835 12.5566C133.819 12.4956 133.817 12.4324 133.828 12.3705C133.839 12.3087 133.863 12.2494 133.899 12.1962C133.935 12.1429 133.982 12.0966 134.037 12.0601C134.093 12.0235 134.155 11.9972 134.222 11.9829C134.288 11.9685 134.357 11.9664 134.425 11.9764C134.492 11.9865 134.557 12.0087 134.615 12.0417C134.673 12.0746 134.723 12.1178 134.763 12.1687C134.803 12.2195 134.832 12.2771 134.847 12.3381C135.117 13.3694 135.692 14.3122 136.509 15.0621C137.327 15.812 138.355 16.3397 139.479 16.5868C139.605 16.6115 139.717 16.6784 139.793 16.7745C139.868 16.8706 139.902 16.9891 139.888 17.1069C139.873 17.2246 139.811 17.3332 139.715 17.4115C139.618 17.4898 139.492 17.5322 139.363 17.5304Z" fill="url(#paint3_linear_58_19)"/>
<path d="M142.484 17.5304C142.356 17.5301 142.234 17.4869 142.139 17.4091C142.044 17.3313 141.983 17.2242 141.968 17.1081C141.954 16.9921 141.986 16.8752 142.059 16.7795C142.132 16.6839 142.241 16.6161 142.365 16.5892C143.489 16.3421 144.517 15.8144 145.335 15.0645C146.152 14.3146 146.728 13.3718 146.997 12.3404C147.029 12.2173 147.112 12.1107 147.23 12.044C147.347 11.9774 147.488 11.9563 147.622 11.9853C147.757 12.0142 147.873 12.091 147.946 12.1985C148.018 12.3061 148.041 12.4358 148.01 12.5589C147.696 13.7635 147.024 14.8647 146.069 15.7405C145.114 16.6162 143.914 17.2323 142.601 17.5204C142.562 17.5277 142.523 17.5311 142.484 17.5304Z" fill="url(#paint4_linear_58_19)"/>
<path d="M147.502 10.0644C147.385 10.0642 147.271 10.0278 147.18 9.96105C147.088 9.8943 147.023 9.8011 146.996 9.69654C146.727 8.6652 146.152 7.72238 145.334 6.97248C144.517 6.22258 143.489 5.69487 142.365 5.44781C142.298 5.43346 142.235 5.40724 142.18 5.37065C142.124 5.33405 142.077 5.2878 142.041 5.23453C142.006 5.18126 141.981 5.12202 141.97 5.06018C141.959 4.99834 141.962 4.93513 141.977 4.87414C141.993 4.81315 142.022 4.75558 142.061 4.70473C142.101 4.65387 142.152 4.61072 142.21 4.57774C142.268 4.54476 142.333 4.52259 142.4 4.51251C142.467 4.50242 142.536 4.50462 142.603 4.51896C143.916 4.80706 145.116 5.42316 146.071 6.29892C147.026 7.17468 147.698 8.27589 148.012 9.48043C148.043 9.60347 148.02 9.73283 147.947 9.84015C147.874 9.94747 147.758 10.024 147.624 10.0529C147.584 10.0609 147.543 10.0647 147.502 10.0644Z" fill="url(#paint5_linear_58_19)"/>
<path d="M134.345 10.0644C134.305 10.0643 134.264 10.0601 134.225 10.052C134.091 10.0231 133.975 9.94655 133.902 9.83923C133.83 9.73191 133.807 9.60255 133.838 9.47952C134.152 8.27498 134.823 7.17377 135.778 6.298C136.733 5.42224 137.933 4.80615 139.247 4.51805C139.313 4.5037 139.382 4.50151 139.449 4.51159C139.517 4.52168 139.581 4.54384 139.64 4.57682C139.698 4.6098 139.748 4.65296 139.788 4.70381C139.828 4.75467 139.856 4.81223 139.872 4.87322C139.888 4.93421 139.89 4.99743 139.879 5.05926C139.868 5.1211 139.844 5.18035 139.808 5.23362C139.772 5.28689 139.725 5.33314 139.67 5.36973C139.614 5.40633 139.551 5.43255 139.485 5.44689C138.361 5.69396 137.333 6.22166 136.515 6.97156C135.698 7.72146 135.122 8.66429 134.853 9.69563C134.826 9.80076 134.761 9.89448 134.669 9.96146C134.577 10.0284 134.463 10.0647 134.345 10.0644Z" fill="url(#paint6_linear_58_19)"/>
<path d="M140.923 13.4038C140.503 13.4041 140.088 13.3108 139.715 13.1318C139.343 12.9528 139.023 12.6935 138.783 12.3762C138.544 12.0589 138.392 11.693 138.341 11.3099C138.289 10.9269 138.34 10.5381 138.488 10.177C138.637 9.8159 138.878 9.49321 139.193 9.23664C139.507 8.98006 139.884 8.79728 140.293 8.70396C140.701 8.61064 141.128 8.60958 141.537 8.70087C141.945 8.79216 142.324 8.97307 142.64 9.22808C142.691 9.26933 142.733 9.31947 142.764 9.37564C142.794 9.43181 142.812 9.4929 142.816 9.55543C142.821 9.61796 142.812 9.6807 142.79 9.74007C142.768 9.79944 142.734 9.85428 142.689 9.90145C142.644 9.94863 142.589 9.98722 142.528 10.015C142.467 10.0428 142.4 10.0593 142.332 10.0635C142.264 10.0676 142.195 10.0595 142.131 10.0394C142.066 10.0193 142.006 9.98779 141.955 9.94654C141.73 9.76392 141.452 9.6448 141.155 9.60348C140.858 9.56216 140.554 9.6004 140.28 9.71361C140.006 9.82682 139.774 10.0102 139.611 10.2417C139.448 10.4731 139.361 10.7429 139.361 11.0185C139.361 11.2941 139.448 11.5639 139.611 11.7953C139.774 12.0268 140.006 12.2102 140.28 12.3234C140.554 12.4366 140.858 12.4748 141.155 12.4335C141.452 12.3922 141.73 12.2731 141.955 12.0905C142.059 12.0071 142.194 11.9651 142.332 11.9735C142.4 11.9777 142.467 11.9942 142.528 12.022C142.589 12.0498 142.644 12.0884 142.689 12.1355C142.734 12.1827 142.768 12.2376 142.79 12.2969C142.812 12.3563 142.821 12.419 142.816 12.4816C142.812 12.5441 142.794 12.6052 142.764 12.6614C142.733 12.7175 142.691 12.7677 142.64 12.8089C142.165 13.1914 141.555 13.4028 140.923 13.4038Z" fill="url(#paint7_linear_58_19)"/>
<path d="M140.923 6.7249C140.785 6.7249 140.653 6.67464 140.556 6.58517C140.458 6.4957 140.403 6.37436 140.403 6.24784V3.38545C140.403 3.25893 140.458 3.13758 140.556 3.04812C140.653 2.95865 140.785 2.90839 140.923 2.90839C141.061 2.90839 141.194 2.95865 141.291 3.04812C141.389 3.13758 141.443 3.25893 141.443 3.38545V6.24784C141.443 6.37436 141.389 6.4957 141.291 6.58517C141.194 6.67464 141.061 6.7249 140.923 6.7249Z" fill="url(#paint8_linear_58_19)"/>
<path d="M140.923 19.1286C140.785 19.1286 140.653 19.0783 140.556 18.9889C140.458 18.8994 140.403 18.778 140.403 18.6515V15.7891C140.403 15.6626 140.458 15.5413 140.556 15.4518C140.653 15.3623 140.785 15.3121 140.923 15.3121C141.061 15.3121 141.194 15.3623 141.291 15.4518C141.389 15.5413 141.443 15.6626 141.443 15.7891V18.6515C141.443 18.778 141.389 18.8994 141.291 18.9889C141.194 19.0783 141.061 19.1286 140.923 19.1286Z" fill="url(#paint9_linear_58_19)"/>
<path d="M135.723 11.4956H132.602C132.464 11.4956 132.332 11.4453 132.234 11.3558C132.137 11.2664 132.082 11.145 132.082 11.0185C132.082 10.892 132.137 10.7706 132.234 10.6812C132.332 10.5917 132.464 10.5414 132.602 10.5414H135.723C135.86 10.5414 135.993 10.5917 136.09 10.6812C136.188 10.7706 136.243 10.892 136.243 11.0185C136.243 11.145 136.188 11.2664 136.09 11.3558C135.993 11.4453 135.86 11.4956 135.723 11.4956Z" fill="url(#paint10_linear_58_19)"/>
<path d="M155.486 11.4956H140.923C140.785 11.4956 140.653 11.4453 140.556 11.3558C140.458 11.2664 140.403 11.145 140.403 11.0185C140.403 10.892 140.458 10.7706 140.556 10.6812C140.653 10.5917 140.785 10.5414 140.923 10.5414H155.486C155.624 10.5414 155.756 10.5917 155.854 10.6812C155.951 10.7706 156.006 10.892 156.006 11.0185C156.006 11.145 155.951 11.2664 155.854 11.3558C155.756 11.4453 155.624 11.4956 155.486 11.4956Z" fill="url(#paint11_linear_58_19)"/>
<path d="M155.486 11.4955C155.383 11.4955 155.283 11.4675 155.197 11.4151C155.112 11.3627 155.045 11.2882 155.006 11.201C154.966 11.1139 154.956 11.018 154.976 10.9254C154.996 10.8329 155.045 10.7479 155.118 10.6812L157.351 8.63314H153.101L150.133 11.3558C150.035 11.4427 149.903 11.4907 149.767 11.4897C149.63 11.4886 149.5 11.4384 149.404 11.3499C149.307 11.2615 149.252 11.1418 149.251 11.0167C149.25 10.8917 149.302 10.7712 149.397 10.6812L152.518 7.8188C152.615 7.72932 152.748 7.67904 152.885 7.67902H158.606C158.709 7.67904 158.81 7.70703 158.895 7.75945C158.981 7.81187 159.047 7.88637 159.087 7.97353C159.126 8.06069 159.136 8.1566 159.116 8.24912C159.096 8.34165 159.047 8.42665 158.974 8.49337L155.854 11.3558C155.756 11.4452 155.624 11.4955 155.486 11.4955Z" fill="url(#paint12_linear_58_19)"/>
<path d="M158.606 14.358H152.885C152.748 14.3579 152.615 14.3076 152.518 14.2182L149.397 11.3558C149.302 11.2658 149.25 11.1453 149.251 11.0202C149.252 10.8951 149.307 10.7755 149.404 10.687C149.5 10.5986 149.63 10.5484 149.767 10.5473C149.903 10.5462 150.035 10.5943 150.133 10.6812L153.101 13.4038H157.351L155.118 11.3558C155.023 11.2658 154.971 11.1453 154.972 11.0202C154.973 10.8951 155.028 10.7755 155.125 10.687C155.221 10.5986 155.351 10.5484 155.488 10.5473C155.624 10.5462 155.756 10.5943 155.854 10.6812L158.974 13.5436C159.047 13.6103 159.096 13.6953 159.116 13.7878C159.136 13.8804 159.126 13.9763 159.087 14.0634C159.047 14.1506 158.981 14.2251 158.895 14.2775C158.81 14.3299 158.709 14.3579 158.606 14.358Z" fill="url(#paint13_linear_58_19)"/>
<defs>
<linearGradient id="paint0_linear_58_19" x1="124.623" y1="29.4775" x2="154.15" y2="-2.71187" gradientUnits="userSpaceOnUse">
<stop stop-color="#AB20EC"/>
<stop offset="1" stop-color="#0071FC"/>
</linearGradient>
<linearGradient id="paint1_linear_58_19" x1="129.473" y1="33.9257" x2="158.999" y2="1.73625" gradientUnits="userSpaceOnUse">
<stop stop-color="#AB20EC"/>
<stop offset="1" stop-color="#0071FC"/>
</linearGradient>
<linearGradient id="paint2_linear_58_19" x1="129.343" y1="33.8064" x2="158.869" y2="1.61698" gradientUnits="userSpaceOnUse">
<stop stop-color="#AB20EC"/>
<stop offset="1" stop-color="#0071FC"/>
</linearGradient>
<linearGradient id="paint3_linear_58_19" x1="122.711" y1="27.7239" x2="152.238" y2="-4.46555" gradientUnits="userSpaceOnUse">
<stop stop-color="#AB20EC"/>
<stop offset="1" stop-color="#0071FC"/>
</linearGradient>
<linearGradient id="paint4_linear_58_19" x1="127.135" y1="31.7818" x2="156.662" y2="-0.407643" gradientUnits="userSpaceOnUse">
<stop stop-color="#AB20EC"/>
<stop offset="1" stop-color="#0071FC"/>
</linearGradient>
<linearGradient id="paint5_linear_58_19" x1="122.711" y1="27.7238" x2="152.238" y2="-4.46557" gradientUnits="userSpaceOnUse">
<stop stop-color="#AB20EC"/>
<stop offset="1" stop-color="#0071FC"/>
</linearGradient>
<linearGradient id="paint6_linear_58_19" x1="118.288" y1="23.666" x2="147.814" y2="-8.52344" gradientUnits="userSpaceOnUse">
<stop stop-color="#AB20EC"/>
<stop offset="1" stop-color="#0071FC"/>
</linearGradient>
<linearGradient id="paint7_linear_58_19" x1="122.709" y1="27.7224" x2="152.236" y2="-4.4675" gradientUnits="userSpaceOnUse">
<stop stop-color="#AB20EC"/>
<stop offset="1" stop-color="#0071FC"/>
</linearGradient>
<linearGradient id="paint8_linear_58_19" x1="119.331" y1="24.6229" x2="148.857" y2="-7.56649" gradientUnits="userSpaceOnUse">
<stop stop-color="#AB20EC"/>
<stop offset="1" stop-color="#0071FC"/>
</linearGradient>
<linearGradient id="paint9_linear_58_19" x1="126.092" y1="30.8248" x2="155.619" y2="-1.36464" gradientUnits="userSpaceOnUse">
<stop stop-color="#AB20EC"/>
<stop offset="1" stop-color="#0071FC"/>
</linearGradient>
<linearGradient id="paint10_linear_58_19" x1="119.331" y1="24.6229" x2="148.857" y2="-7.56646" gradientUnits="userSpaceOnUse">
<stop stop-color="#AB20EC"/>
<stop offset="1" stop-color="#0071FC"/>
</linearGradient>
<linearGradient id="paint11_linear_58_19" x1="126.352" y1="31.0633" x2="155.879" y2="-1.1261" gradientUnits="userSpaceOnUse">
<stop stop-color="#AB20EC"/>
<stop offset="1" stop-color="#0071FC"/>
</linearGradient>
<linearGradient id="paint12_linear_58_19" x1="128.562" y1="33.0908" x2="158.089" y2="0.901385" gradientUnits="userSpaceOnUse">
<stop stop-color="#AB20EC"/>
<stop offset="1" stop-color="#0071FC"/>
</linearGradient>
<linearGradient id="paint13_linear_58_19" x1="130.123" y1="34.522" x2="159.649" y2="2.33262" gradientUnits="userSpaceOnUse">
<stop stop-color="#AB20EC"/>
<stop offset="1" stop-color="#0071FC"/>
</linearGradient>
</defs>
</svg>
