<svg xmlns="http://www.w3.org/2000/svg" width="41" height="37" viewBox="0 0 41 37" fill="none"><g clip-path="url(#clip0_78_3)"><path d="M21.288 26.925C21.234 26.216 21.281 25.499 21.281 24.787C21.512 18.833 22.635 13.117 25.943 7.979C27.7358 5.3413 30.0649 3.11143 32.778 1.435C33.151 1.189 33.602 0.671 34.042 1.083C34.482 1.495 33.993 1.976 33.771 2.361C31.499 6.07755 29.7363 10.0823 28.53 14.268C27.965 16.438 27.956 16.436 30.203 16.378C31.48 16.2829 32.7631 16.4452 33.9762 16.8552C35.1893 17.2653 36.3077 17.9147 37.2651 18.7651C38.2225 19.6154 38.9994 20.6494 39.5498 21.8056C40.1001 22.9618 40.4127 24.2167 40.469 25.496C40.894 30.476 36.88 35.078 31.569 35.696C31.2807 35.7309 30.9905 35.749 30.7 35.75C28.3396 35.6338 26.0972 34.6826 24.3732 33.0661C22.6492 31.4496 21.5558 29.2731 21.288 26.925ZM7.02003 35.191C5.21497 34.6043 3.62914 33.4862 2.47022 31.9831C1.3113 30.48 0.633309 28.6619 0.525034 26.767C0.277034 18.941 1.82903 11.621 7.09303 5.45C8.82623 3.51693 10.9039 1.92315 13.22 0.75C13.49 1.862 12.864 2.45 12.52 3.094C10.4064 6.76229 8.73955 10.6704 7.55503 14.735C7.17903 16.21 7.43603 16.581 9.01003 16.422C10.9385 16.1275 12.9103 16.4726 14.624 17.4046C16.3378 18.3366 17.6992 19.8042 18.5 21.583C19.4196 23.2414 19.8102 25.1414 19.6195 27.0281C19.4288 28.9148 18.6659 30.6981 17.433 32.139C16.565 33.2531 15.4519 34.1521 14.1802 34.7664C12.9085 35.3807 11.5123 35.6936 10.1 35.681C9.05413 35.6788 8.01497 35.5135 7.02003 35.191Z" fill="#5E71FF"></path></g><defs><clipPath id="clip0_78_3"><rect width="41" height="36.249" fill="white"></rect></clipPath></defs></svg>